PathFileType	4	(X/Y/Z)	../Python\running\Running03\task.trc
DataRate	CameraRate	NumFrames	NumMarkers	Units	OrigDataRate	OrigDataStartFrame	OrigNumFrames
200.000000	200.000000	6	30	mm	200.000000	99	198
Frame#	Time	C7			RBAK			CLAV			STRN			RASI			RPSI			LASI			PE01			RTH2			RTH3			RD5M			RTOE			LTH2			LTH3			LTB2			LTB3			LHEE			LTOE			LD5M			RHEE			RTH1			RTB2			LPSI			T10			RTB1			PE03			RTB3			PE02			LTH1			LTB1			
		X1	Y1	Z1	X2	Y2	Z2	X3	Y3	Z3	X4	Y4	Z4	X5	Y5	Z5	X6	Y6	Z6	X7	Y7	Z7	X8	Y8	Z8	X9	Y9	Z9	X10	Y10	Z10	X11	Y11	Z11	X12	Y12	Z12	X13	Y13	Z13	X14	Y14	Z14	X15	Y15	Z15	X16	Y16	Z16	X17	Y17	Z17	X18	Y18	Z18	X19	Y19	Z19	X20	Y20	Z20	X21	Y21	Z21	X22	Y22	Z22	X23	Y23	Z23	X24	Y24	Z24	X25	Y25	Z25	X26	Y26	Z26	X27	Y27	Z27	X28	Y28	Z28	X29	Y29	Z29	X30	Y30	Z30	

100	0.495	302.2663574218751	1306.142578125	169.4182281494141	229.9458160400392	1197.06201171875	251.514617919922	418.5952148437502	1200.658813476563	182.782455444336	459.8350830078127	1010.665222167969	168.3913269042969	378.7986755371095	833.486450195313	279.0896606445314	194.6985015869142	893.8904418945317	192.6748352050782	393.5086669921877	796.7702026367192	55.00042724609378	209.8764190673829	919.737670898438	144.1723632812501	398.677673339844	482.7087707519534	302.4094238281251	408.6146240234377	542.7144165039065	316.0144042968751	371.4306945800782	18.37552452087403	254.8263549804689	415.0793762207034	30.72385597229005	201.6062927246095	284.3606567382814	484.962829589844	33.92115402221681	357.7655029296876	512.9027099609377	19.80444717407227	80.05656433105472	362.2117614746095	77.75987243652347	117.3776626586915	329.2528381347657	73.24982452392581	-96.44251251220709	352.6321411132814	160.7141265869141	-40.46577453613283	187.7705841064454	122.8836517333985	-64.47492218017581	219.6346435546876	79.52886962890628	225.2456970214845	33.22246170043947	178.0844116210938	359.0101928710939	550.6022949218752	316.9174804687501	347.5201416015626	235.2305755615236	279.2261657714845	201.3613739013673	880.1410522460942	105.263298034668	237.6135711669923	1018.287353515625	130.8838806152344	401.7332458496096	263.1009216308595	272.0871887207032	184.1519012451172	860.8574218750005	123.241798400879	366.5852355957032	192.4484100341798	259.1110839843751	178.5223388671876	868.5009155273442	172.9321746826172	313.7424316406251	536.6250000000002	15.419340133667	156.9814147949219	375.2619934082032	57.53218841552737	
101	0.5	318.8473205566407	1304.887939453125	170.3644104003907	247.5042419433595	1195.338745117188	253.6609497070314	435.3896179199221	1198.480102539063	182.0661315917969	476.1056213378909	1008.095642089844	167.3949432373047	393.9286193847659	831.954956054688	280.0349426269532	210.1023406982423	893.9594726562505	192.4016418457032	409.0391845703127	794.7081909179692	56.02944183349612	225.7008666992189	919.2377929687505	143.9155273437501	408.507263183594	480.2169494628909	302.8905334472657	419.2081604003909	540.143737792969	316.3267517089845	371.2419738769532	18.35238456726075	254.8054199218751	414.9650573730471	30.66699218750001	201.6644897460939	309.019012451172	482.5885925292971	34.44038009643556	381.4739379882814	512.6031494140627	19.94783592224122	109.503028869629	357.9994506835939	76.24970245361331	147.1836395263672	325.3887329101564	72.3151779174805	-68.50505828857425	345.8910522460939	157.6925201416016	-7.40452337265015	182.1159820556641	122.220085144043	-31.74287223815919	213.0657653808595	78.1149826049805	225.2039489746095	34.02951812744142	178.1441650390626	369.7098083496095	548.5291748046877	317.5014953613282	351.854217529297	233.8180389404298	279.1767578125001	217.1879272460939	879.2202758789067	104.9864578247071	253.7346954345704	1016.935119628907	131.7606658935547	406.7295227050784	260.5294799804689	272.1363830566407	199.7977600097657	860.4191894531255	122.8983535766602	370.019989013672	190.6578063964844	259.093963623047	193.7791137695314	868.2789916992192	172.5051269531251	336.7931518554689	535.028259277344	15.79804611206055	186.497543334961	371.7703552246095	56.63984680175784	
102	0.505	335.4530334472657	1303.952392578125	171.2203979492188	265.218231201172	1194.060424804688	255.8205871582032	452.1720886230471	1196.743774414063	181.2107696533204	492.3005065917971	1005.999755859375	166.3116912841797	409.0400085449221	830.6049804687505	280.9438476562501	225.4851684570314	894.1730346679692	192.2496185302736	424.5830383300784	793.0900268554692	57.02878189086917	241.5641021728517	919.026733398438	143.8440093994141	418.3581237792971	478.060974121094	303.352264404297	429.9062500000002	537.8726806640627	316.5646057128907	371.0513305664064	18.26793289184571	254.7931518554689	414.8376464843752	30.56053161621095	201.7276916503907	333.8462219238282	480.8644104003909	34.9533042907715	405.3010559082034	512.9787597656252	20.14103889465333	139.0613250732422	353.7856445312501	74.71568298339847	177.2032775878907	321.6502990722657	71.38297271728518	-40.3352394104004	338.3826293945314	154.4841918945313	26.22299385070802	176.0089416503907	121.4868240356446	1.51576328277588	205.9627838134767	76.60121154785159	225.1821594238282	35.061336517334	178.2369537353516	380.4939575195314	546.802673339844	318.1116943359376	355.8395385742189	232.6079254150392	279.1029663085939	232.9974365234376	878.732299804688	104.885368347168	269.8421325683595	1015.943420410157	132.7407531738282	411.3256530761721	258.1594238281251	272.2655639648439	215.4241943359376	860.3146362304692	122.7300186157227	373.1574707031251	189.0965881347657	259.1268920898439	209.0565948486329	868.3652343750005	172.2627410888672	359.9656677246095	534.052429199219	16.19147682189942	216.0628356933595	368.574676513672	55.79801559448245	
103	0.51	352.0812988281251	1303.346069335938	171.9822235107422	283.0914001464845	1193.238403320313	257.9909667968751	468.9447326660159	1195.467163085938	180.2189025878907	508.4266357421877	1004.394775390625	165.1459960937501	424.1553039550784	829.437866210938	281.8211364746095	240.8753204345704	894.4950561523442	192.2435607910157	440.1601867675784	791.9450073242192	57.98708343505862	257.457977294922	919.0733032226567	143.9671020507813	428.1695861816409	476.1854248046877	303.7656555175782	440.6807250976565	535.828552246094	316.7173156738282	370.8446655273439	18.1458969116211	254.7779083251954	414.6905212402346	30.42245101928712	201.7932739257814	358.8116455078126	479.8225708007815	35.45354080200197	429.2141113281252	514.0493164062502	20.39160919189454	168.6844482421876	349.5868225097657	73.18477630615237	207.3818359375001	318.0642089843751	70.47254180908206	-11.91767597198487	330.1228027343751	151.153305053711	60.42193984985354	169.5430603027344	120.6267700195313	35.28845214843751	198.4243469238282	74.98078155517581	225.1629333496095	36.31639099121095	178.3528442382813	391.3499755859377	545.3963012695315	318.7186584472657	359.5086364746095	231.6086273193361	278.999969482422	248.7936401367189	878.6405639648442	104.9782028198243	285.9488525390626	1015.313171386719	133.8290557861329	415.5543518066409	256.0038452148439	272.4414367675782	231.0403747558595	860.503051757813	122.758041381836	376.0227355957032	187.771713256836	259.1769409179689	224.3757781982423	868.7158813476567	172.2284240722657	383.2373046875001	533.7222290039065	16.593656539917	245.6062011718751	365.7004699707032	55.03001785278323	
104	0.515	368.7299194335939	1303.076049804688	172.6469879150391	301.1250610351564	1192.879150390625	260.1691284179689	485.7100524902346	1194.660034179688	179.0947418212891	524.493103027344	1003.289489746094	163.9039459228516	439.299011230469	828.4572753906255	282.6697692871095	256.302947998047	894.9062500000005	192.4061584472657	455.787292480469	791.2931518554692	58.89095306396487	273.3780212402345	919.3540039062505	144.2924957275391	437.8482666015627	474.5390319824221	304.0991210937501	451.467956542969	533.943054199219	316.7725830078126	370.613983154297	18.00926208496094	254.7464447021486	414.5220947265627	30.26791191101076	201.8598175048829	383.8774414062501	479.4861145019534	35.9378128051758	453.1717529296877	515.8265380859377	20.70490646362305	198.3325805664064	345.407440185547	71.67928314208987	237.6696777343751	314.6474914550782	69.60154724121097	16.77219772338868	321.1370239257814	147.7590026855469	95.20291137695315	162.8170471191407	119.588363647461	69.56903839111331	190.5521392822266	73.24979400634768	225.1383819580079	37.80615997314455	178.4815368652344	402.2363891601565	544.2833251953127	319.2872009277345	362.9024047851564	230.8348388671876	278.8618164062501	264.5816040039064	878.909545898438	105.2770004272462	302.0675659179689	1015.041625976563	135.0305633544922	419.4570007324221	254.0848083496095	272.6269531250001	246.6565704345704	860.952514648438	122.9948501586915	378.6499633789064	186.6978454589844	259.2108154296876	239.7576751708986	869.2924194335942	172.4165649414063	406.5781860351565	534.0533447265627	17.00006294250489	275.0613403320314	363.1541748046876	54.35274505615237	
105	0.52	385.3967590332034	1303.145874023438	173.2126617431641	319.3179321289064	1192.984130859375	262.351287841797	502.4708557128909	1194.3251953125	177.8440246582032	540.510925292969	1002.6845703125	162.5935668945313	454.4969177246096	827.669311523438	283.4909057617189	271.7979125976564	895.4013671875005	192.7569427490236	471.478210449219	791.1447143554692	59.72614669799808	289.3238220214845	919.853637695313	144.826889038086	447.282409667969	473.0857543945315	304.322723388672	462.1780700683596	532.1646728515627	316.7182922363282	370.358123779297	17.87935256958009	254.6856079101564	414.3358154296877	30.1088161468506	201.9262847900392	408.9989318847659	479.8670959472659	36.40657806396486	477.1250610351565	518.312927246094	21.08383941650391	227.974334716797	341.2417602539064	70.21704101562503	268.0241699218751	311.4084472656251	68.7853698730469	45.76721191406251	311.4602355957032	144.3536987304688	130.5769805908204	155.9302062988282	118.3328094482422	104.3566513061524	182.4483795166016	71.40857696533206	225.1108245849611	39.55319595336915	178.6141662597657	413.0898132324221	543.4431152343752	319.7807922363282	366.068084716797	230.3085021972657	278.6824035644532	280.367645263672	879.5073242187505	105.7879638671876	318.2103271484376	1015.123352050782	136.3501892089844	423.0822448730471	252.4328918457032	272.785369873047	262.2841796875001	861.641479492188	123.4441223144532	381.0806274414064	185.8971405029297	259.1994628906251	255.2225036621095	870.0632934570317	172.8324432373047	429.9515075683596	535.0511474609377	17.40846633911134	304.3694763183595	360.9241333007814	53.77622985839847	
